<?xml version="1.0" encoding="utf-8"?>
<!-- Generator: Adobe Illustrator 25.2.1, SVG Export Plug-In . SVG Version: 6.00 Build 0)  -->
<svg version="1.1" xmlns="http://www.w3.org/2000/svg" xmlns:xlink="http://www.w3.org/1999/xlink" x="0px" y="0px"
	 viewBox="0 0 176.6 520.8" style="enable-background:new 0 0 176.6 520.8;" xml:space="preserve">
<style type="text/css">
	.st0{fill:#0086B0;}
	.st1{fill:#0AC7AD;}
	.st2{fill:none;stroke:#FFFFFF;stroke-width:1.39;stroke-miterlimit:10;}
	.st3{fill:#00757B;}
	.st4{fill:none;stroke:#FFFFFF;stroke-width:0.7;stroke-miterlimit:10;}
	.st5{enable-background:new    ;}
	.st6{fill:#FFFFFF;}
	.st7{font-family:'Arial-BoldMT';}
	.st8{font-size:21px;}
	.st9{font-size:9px;}
	.st10{font-size:8.15px;}
	.st11{font-size:16.89px;}
	.st12{fill:none;}
	.st13{font-family:'ArialMT';}
	.st14{font-size:10px;}
	.st15{font-size:11px;}
	.st16{fill:#FFFFFF;stroke:#FFFFFF;stroke-miterlimit:10;}
</style>
<g id="Layer_1">
	<g>
		<g id="Layer_2_1_">
			<g id="OBJECTS">
				<rect x="11.8" y="169.5" class="st0" width="83.4" height="9.9"/>
				<path class="st1" d="M19.3,11.1l138.3,0.2c5.3-0.2,9.6,4.2,9.6,9.6v481.1c-0.5,6.8-4.7,9.7-8.5,9.7H15.9c-5,0-6.5-4.4-6.5-9.7
					V20.9C9.3,15.5,14.3,11.1,19.3,11.1z"/>
				<path class="st2" d="M21,18.3h136c2.8,0,5.1,4.1,5.1,9.2v469.7c0,5.1-2.3,9.2-5.1,9.2H21c-2.8,0-6.7-2.9-6.7-9.2V27.5
					C14.3,20.9,18.2,18.3,21,18.3z"/>
				<path class="st3" d="M126,0H50.3c-1.6,0-2.8,1.3-2.8,2.8v120.4c0,3,1.5,5.9,3.9,7.7l33,23.9c2.3,1.6,5.3,1.6,7.6,0l33-23.9
					c2.5-1.8,3.9-4.6,3.9-7.7V2.8C128.9,1.3,127.6,0,126,0C126.1,0,126,0,126,0z"/>
				<path class="st4" d="M50.5,0v121c0,2.8,1.4,5.5,3.6,7.1l30.7,22.2c2.1,1.5,4.9,1.5,7,0l30.7-22.2c2.3-1.6,3.6-4.3,3.6-7.1V0"/>
				<text transform="matrix(1 0 0 1 52.1554 100.2647)" class="st5"><tspan x="0" y="0" class="st6 st7 st8">₹10</tspan><tspan x="35" y="0" class="st6 st7 st9">,</tspan><tspan x="37.5" y="0" class="st6 st7 st8">000</tspan></text>
				<text transform="matrix(1 0 0 1 79.4193 112.1633)" class="st5"><tspan x="0" y="0" class="st6 st7 st10">PER </tspan><tspan x="-18.8" y="9.8" class="st6 st7 st10">DEPARTMENT</tspan></text>
				<path class="st6" d="M35.2,51.5h105.3c1.8,0,3.2,1.5,3.2,3.2v19.6c0,1.8-1.5,3.2-3.2,3.2H35.2c-1.8,0-3.2-1.5-3.2-3.2V54.7
					C32,52.9,33.4,51.5,35.2,51.5z"/>
				<text transform="matrix(1 0 0 1 39.8698 70.5658)" class="st3 st7 st11">GRADUATE</text>
			</g>
		</g>
	</g>
	<polygon class="st12" points="149,488.6 39.4,488.6 41.5,186.8 151.1,186.8 	"/>
	<text transform="matrix(1 0 0 1 41.4501 193.9204)"><tspan x="0" y="0" class="st6 st13 st14">Internship offer letter</tspan><tspan x="-0.2" y="24" class="st6 st13 st14">Training (3 months)</tspan><tspan x="-0.3" y="48" class="st6 st13 st14">Internship Certificate</tspan><tspan x="-0.5" y="72" class="st6 st13 st14">Online</tspan><tspan x="-0.7" y="96" class="st6 st13 st14">Graduate Certificate as </tspan><tspan x="-0.7" y="108" class="st6 st13 st14">Engineer</tspan><tspan x="-0.9" y="132" class="st6 st13 st14">Personal Mentor</tspan><tspan x="-1.3" y="192" class="st6 st13 st14">Offline</tspan><tspan x="-1.5" y="216" class="st6 st13 st14">Training (4 months)</tspan></text>
	<rect x="28.6" y="341.2" class="st12" width="118.3" height="26.2"/>
	<text transform="matrix(1 0 0 1 30.2763 349.1159)"><tspan x="0" y="0" class="st6 st7 st15">OPTIONAL UPGRADE</tspan><tspan x="4.1" y="14" class="st6 st7 st14">₹12,000</tspan><tspan x="40.2" y="14" class="st6 st13 st14"> per department</tspan></text>
</g>
<g id="Layer_2">
	<path class="st6" d="M26,238.2l1-0.8l1,2c0.6-1.6,1.9-2.8,3.4-3.4c0.1,0.1,0.2,0.4,0.2,0.4s-1.3,0.1-3.3,4.3h-1
		C27,239.9,26.6,239,26,238.2z"/>
	<path class="st6" d="M26,190.9l1-0.8l1,2c0.6-1.6,1.9-2.8,3.4-3.4c0.1,0.1,0.2,0.4,0.2,0.4s-1.3,0.1-3.3,4.3h-1
		C27,192.5,26.6,191.7,26,190.9z"/>
	<path class="st6" d="M26,214.3l1-0.8l1,2c0.6-1.6,1.9-2.8,3.4-3.4c0.1,0.1,0.2,0.4,0.2,0.4s-1.3,0.1-3.3,4.3h-1
		C27,215.9,26.6,215.1,26,214.3z"/>
	<polygon class="st12" points="150.5,205.7 24.7,205.7 25.3,159.1 151.1,159.1 	"/>
	<text transform="matrix(1 0 0 1 40.6348 165.5645)"><tspan x="0" y="0" class="st6 st13 st9">Pick any of the full track </tspan><tspan x="-14.7" y="10.8" class="st6 st13 st9">specialisations of a department</tspan></text>
	<path class="st6" d="M26.1,262.2l1-0.8l1,2c0.6-1.6,1.9-2.8,3.4-3.4c0.1,0.1,0.2,0.4,0.2,0.4s-1.3,0.1-3.3,4.3h-1
		C27.1,263.8,26.7,263,26.1,262.2z"/>
	<path class="st6" d="M26.1,286.3l1-0.8l1,2c0.6-1.6,1.9-2.8,3.4-3.4c0.1,0.1,0.2,0.4,0.2,0.4s-1.3,0.1-3.3,4.3h-1
		C27.1,287.9,26.7,287.1,26.1,286.3z"/>
	<path class="st6" d="M26.1,322.5l1-0.8l1,2c0.6-1.6,1.9-2.8,3.4-3.4c0.1,0.1,0.2,0.4,0.2,0.4s-1.3,0.1-3.3,4.3h-1
		C27.1,324.1,26.6,323.3,26.1,322.5z"/>
	<path class="st6" d="M25.2,405.7l1-0.8l1,2c0.6-1.6,1.9-2.8,3.4-3.4c0.1,0.1,0.2,0.4,0.2,0.4s-1.3,0.1-3.3,4.3h-1
		C26.2,407.3,25.7,406.5,25.2,405.7z"/>
	<path class="st6" d="M25.6,382l1-0.8l1,2c0.6-1.6,1.9-2.8,3.4-3.4c0.1,0.1,0.2,0.4,0.2,0.4s-1.3,0.1-3.3,4.3h-1
		C26.6,383.6,26.1,382.8,25.6,382z"/>
</g>
<g id="Layer_3">
	<line class="st16" x1="13.6" y1="333.1" x2="162.1" y2="333.1"/>
</g>
</svg>
