<?xml version="1.0" encoding="utf-8"?>
<!-- Generator: Adobe Illustrator 25.2.1, SVG Export Plug-In . SVG Version: 6.00 Build 0)  -->
<svg version="1.1" xmlns="http://www.w3.org/2000/svg" xmlns:xlink="http://www.w3.org/1999/xlink" x="0px" y="0px"
	 viewBox="0 0 176.6 520.8" style="enable-background:new 0 0 176.6 520.8;" xml:space="preserve">
<style type="text/css">
	.st0{fill:#0086B0;}
	.st1{fill:#0AC7AD;}
	.st2{fill:none;stroke:#FFFFFF;stroke-width:1.39;stroke-miterlimit:10;}
	.st3{fill:#00757B;}
	.st4{fill:none;stroke:#FFFFFF;stroke-width:0.7;stroke-miterlimit:10;}
	.st5{fill:#FFFFFF;}
	.st6{font-family:'Arial-BoldMT';}
	.st7{font-size:21px;}
	.st8{enable-background:new    ;}
	.st9{font-size:8.15px;}
	.st10{font-size:16.89px;}
	.st11{fill:none;}
	.st12{font-family:'ArialMT';}
	.st13{font-size:10px;}
	.st14{font-size:11px;}
	.st15{font-size:9px;}
	.st16{fill:#FFFFFF;stroke:#FFFFFF;stroke-miterlimit:10;}
</style>
<g id="Layer_1">
	<g>
		<g id="Layer_2_1_">
			<g id="OBJECTS">
				<rect x="11.8" y="169.5" class="st0" width="83.4" height="9.9"/>
				<path class="st1" d="M20.4,11.1h137.9c4.3,0,8.9,4.4,8.9,9.7v481.1c0,5.5-4.7,9.7-10,9.7H18.5c-4.2,0-9.2-4.4-9.2-9.7V20.9
					C9.3,15.5,15.2,11.1,20.4,11.1z"/>
				<path class="st2" d="M22.9,18.2L155,18.3c3.1-0.1,7.1,4.1,7.1,9.2v469c0,5.1-2.3,9.2-5.1,9.2H21c-2.8,0-6.7-2.9-6.7-9.2v-469
					C14.3,20.9,20.1,18.2,22.9,18.2z"/>
				<path class="st3" d="M126,0H50.3c-1.6,0-2.8,1.3-2.8,2.8v120.4c0,3,1.5,5.9,3.9,7.7l33,23.9c2.3,1.6,5.3,1.6,7.6,0l33-23.9
					c2.5-1.8,3.9-4.6,3.9-7.7V2.8C128.9,1.3,127.6,0,126,0C126.1,0,126,0,126,0z"/>
				<path class="st4" d="M50.5,0v121c0,2.8,1.4,5.5,3.6,7.1l30.7,22.2c2.1,1.5,4.9,1.5,7,0l30.7-22.2c2.3-1.6,3.6-4.3,3.6-7.1V0"/>
				<text transform="matrix(1 0 0 1 59.9368 100.5341)" class="st5 st6 st7">₹1000</text>
				<text transform="matrix(1 0 0 1 79.4193 112.1633)" class="st8"><tspan x="0" y="0" class="st5 st6 st9">PER </tspan><tspan x="-24.7" y="9.8" class="st5 st6 st9">SPECIALISATION</tspan></text>
				<path class="st5" d="M35.2,51.5h105.3c1.8,0,3.2,1.5,3.2,3.2v19.6c0,1.8-1.5,3.2-3.2,3.2H35.2c-1.8,0-3.2-1.5-3.2-3.2V54.7
					C32,52.9,33.4,51.5,35.2,51.5z"/>
				<text transform="matrix(1 0 0 1 57.86 70.77)" class="st3 st6 st10">SINGLE</text>
			</g>
		</g>
	</g>
	<polygon class="st11" points="149,368.7 39.4,368.7 41.5,186.8 151.1,186.8 	"/>
	<text transform="matrix(1 0 0 1 41.4467 193.9204)"><tspan x="0" y="0" class="st5 st12 st13">Internship offer letter</tspan><tspan x="-0.3" y="24" class="st5 st12 st13">Training (1 month)</tspan><tspan x="-0.5" y="48" class="st5 st12 st13">Internship Certificate</tspan><tspan x="-0.8" y="72" class="st5 st12 st13">Online</tspan><tspan x="-1.5" y="134" class="st5 st12 st13">Offline</tspan><tspan x="-1.8" y="158" class="st5 st12 st13">Training (1.5 months)</tspan></text>
	<rect x="30.3" y="283" class="st11" width="118.3" height="26.2"/>
	<text transform="matrix(1 0 0 1 31.9901 290.8366)"><tspan x="0" y="0" class="st5 st6 st14">OPTIONAL UPGRADE</tspan><tspan x="3.5" y="14" class="st5 st6 st13">₹2000</tspan><tspan x="31.3" y="14" class="st5 st12 st13"> per specialisation</tspan></text>
</g>
<g id="Layer_2">
	<path class="st5" d="M26,238.2l1-0.8l1,2c0.6-1.6,1.9-2.8,3.4-3.4c0.1,0.1,0.2,0.4,0.2,0.4s-1.3,0.1-3.3,4.3h-1
		C27,239.9,26.6,239,26,238.2z"/>
	<path class="st5" d="M26,190.9l1-0.8l1,2c0.6-1.6,1.9-2.8,3.4-3.4c0.1,0.1,0.2,0.4,0.2,0.4s-1.3,0.1-3.3,4.3h-1
		C27,192.5,26.6,191.7,26,190.9z"/>
	<path class="st5" d="M26,214.3l1-0.8l1,2c0.6-1.6,1.9-2.8,3.4-3.4c0.1,0.1,0.2,0.4,0.2,0.4s-1.3,0.1-3.3,4.3h-1
		C27,215.9,26.6,215.1,26,214.3z"/>
	<polygon class="st11" points="150.5,205.7 24.7,205.7 25.3,159.1 151.1,159.1 	"/>
	<text transform="matrix(1 0 0 1 28.123 165.5645)"><tspan x="0" y="0" class="st5 st12 st15">Pick any of the specialisations </tspan><tspan x="15.9" y="10.8" class="st5 st12 st15">under any department</tspan></text>
	<path class="st5" d="M26.1,262.2l1-0.8l1,2c0.6-1.6,1.9-2.8,3.4-3.4c0.1,0.1,0.2,0.4,0.2,0.4s-1.3,0.1-3.3,4.3h-1
		C27.1,263.8,26.7,263,26.1,262.2z"/>
	<path class="st5" d="M25.7,324.5l1-0.8l1,2c0.6-1.6,1.9-2.8,3.4-3.4c0.1,0.1,0.2,0.4,0.2,0.4S30,322.9,28,327h-1
		C26.7,326.2,26.2,325.3,25.7,324.5z"/>
	<path class="st5" d="M26.1,348.3l1-0.8l1,2c0.6-1.6,1.9-2.8,3.4-3.4c0.1,0.1,0.2,0.4,0.2,0.4s-1.3,0.1-3.3,4.3h-1
		C27,350,26.6,349.1,26.1,348.3z"/>
</g>
<g id="Layer_3">
	<line class="st16" x1="13.6" y1="275" x2="162.1" y2="275"/>
</g>
</svg>
