<?xml version="1.0" encoding="utf-8"?>
<!-- Generator: Adobe Illustrator 25.2.1, SVG Export Plug-In . SVG Version: 6.00 Build 0)  -->
<svg version="1.1" xmlns="http://www.w3.org/2000/svg" xmlns:xlink="http://www.w3.org/1999/xlink" x="0px" y="0px"
	 viewBox="0 0 176.6 520.8" style="enable-background:new 0 0 176.6 520.8;" xml:space="preserve">
<style type="text/css">
	.st0{fill:#0086B0;}
	.st1{fill:#0AC7AD;}
	.st2{fill:none;stroke:#FFFFFF;stroke-width:1.39;stroke-miterlimit:10;}
	.st3{fill:#00757B;}
	.st4{fill:none;stroke:#FFFFFF;stroke-width:0.7;stroke-miterlimit:10;}
	.st5{enable-background:new    ;}
	.st6{fill:#FFFFFF;}
	.st7{font-family:'Arial-BoldMT';}
	.st8{font-size:21px;}
	.st9{font-size:9px;}
	.st10{font-size:8.15px;}
	.st11{fill:none;}
	.st12{font-family:'ArialMT';}
	.st13{font-size:10px;}
	.st14{font-size:16.89px;}
	.st15{fill:#FFFFFF;stroke:#FFFFFF;stroke-miterlimit:10;}
</style>
<g id="Layer_1">
	<g>
		<g id="Layer_2_1_">
			<g id="OBJECTS">
				<rect x="11.8" y="169.5" class="st0" width="83.4" height="9.9"/>
				<path class="st1" d="M17.2,11.1H157c5.2,0.2,8.9,1.6,10.3,7.9v483c0,3.5-2.1,5.1-5.5,5.1H14.8c-3.8-0.7-5.5-2.5-5.5-6.7V18.1
					C9.9,13.3,13.6,11.1,17.2,11.1z"/>
				<path class="st2" d="M21,17.2h134.6c2.8,0,6.5,1.9,6.5,7v466.7c0,5-2.3,9.1-5.1,9.1H21c-2.8,0-6.7-2.9-6.7-9.1V26.3
					C14.3,19.7,18.2,17.2,21,17.2z"/>
				<path class="st3" d="M126,0H50.3c-1.6,0-2.8,1.3-2.8,2.8v120.4c0,3,1.5,5.9,3.9,7.7l33,23.9c2.3,1.6,5.3,1.6,7.6,0l33-23.9
					c2.5-1.8,3.9-4.6,3.9-7.7V2.8C128.9,1.3,127.6,0,126,0C126.1,0,126,0,126,0z"/>
				<path class="st4" d="M50.5,0v121c0,2.8,1.4,5.5,3.6,7.1l30.7,22.2c2.1,1.5,4.9,1.5,7,0l30.7-22.2c2.3-1.6,3.6-4.3,3.6-7.1V0"/>
				<text transform="matrix(1 0 0 1 52.4249 100.0541)" class="st5"><tspan x="0" y="0" class="st6 st7 st8">₹12</tspan><tspan x="35" y="0" class="st6 st7 st9">,</tspan><tspan x="37.5" y="0" class="st6 st7 st8">500</tspan></text>
				<text transform="matrix(1 0 0 1 57.6912 112.1633)" class="st6 st7 st10">(FULL ACCESS)</text>
				<path class="st6" d="M35.2,51.5h105.3c1.8,0,3.2,1.5,3.2,3.2v19.6c0,1.8-1.5,3.2-3.2,3.2H35.2c-1.8,0-3.2-1.5-3.2-3.2V54.7
					C32,52.9,33.4,51.5,35.2,51.5z"/>
			</g>
		</g>
	</g>
	<polygon class="st11" points="149,720.6 39.4,720.6 41.5,186.8 151.1,186.8 	"/>
	<text transform="matrix(1 0 0 1 41.452 193.9204)"><tspan x="0" y="0" class="st6 st12 st13">Internship offer letter</tspan><tspan x="-0.1" y="24" class="st6 st12 st13">Training (6 - 12 months)</tspan><tspan x="-0.2" y="48" class="st6 st12 st13">Internship Certificate</tspan><tspan x="-0.3" y="72" class="st6 st12 st13">Offline</tspan><tspan x="-0.4" y="96" class="st6 st12 st13">Graduate Certificate as </tspan><tspan x="-0.4" y="108" class="st6 st12 st13">Engineer</tspan><tspan x="-0.5" y="132" class="st6 st12 st13">Personal Mentor</tspan><tspan x="-0.6" y="156" class="st6 st12 st13">Welcome kit</tspan><tspan x="-0.7" y="180" class="st6 st12 st13">Full access to our </tspan><tspan x="-0.7" y="192" class="st6 st12 st13">offices at various </tspan><tspan x="-0.8" y="204" class="st6 st12 st13">locations</tspan><tspan x="-0.9" y="228" class="st6 st12 st13">Live industrial projects</tspan><tspan x="-1" y="252" class="st6 st12 st13">Job reccomendation </tspan><tspan x="-1" y="264" class="st6 st12 st13">letter</tspan><tspan x="-1.1" y="288" class="st6 st12 st13">Project reports</tspan></text>
	<path class="st6" d="M35.2,34.6h105.3c1.8,0,3.2,1.5,3.2,3.2v19.6c0,1.8-1.5,3.2-3.2,3.2H35.2c-1.8,0-3.2-1.5-3.2-3.2V37.8
		C32,36,33.4,34.6,35.2,34.6z"/>
	<text transform="matrix(1 0 0 1 49.2773 51.9559)" class="st5"><tspan x="0" y="0" class="st3 st7 st14">STARTUP</tspan><tspan x="8.4" y="20.3" class="st3 st7 st14">INTERN</tspan></text>
</g>
<g id="Layer_2">
	<path class="st6" d="M26,238.2l1-0.8l1,2c0.6-1.6,1.9-2.8,3.4-3.4c0.1,0.1,0.2,0.4,0.2,0.4s-1.3,0.1-3.3,4.3h-1
		C27,239.9,26.6,239,26,238.2z"/>
	<path class="st6" d="M26,190.9l1-0.8l1,2c0.6-1.6,1.9-2.8,3.4-3.4c0.1,0.1,0.2,0.4,0.2,0.4s-1.3,0.1-3.3,4.3h-1
		C27,192.5,26.6,191.7,26,190.9z"/>
	<path class="st6" d="M26,214.3l1-0.8l1,2c0.6-1.6,1.9-2.8,3.4-3.4c0.1,0.1,0.2,0.4,0.2,0.4s-1.3,0.1-3.3,4.3h-1
		C27,215.9,26.6,215.1,26,214.3z"/>
	<polygon class="st11" points="150.5,205.7 24.7,205.7 25.3,159.1 151.1,159.1 	"/>
	<text transform="matrix(1 0 0 1 25.625 165.5645)"><tspan x="0" y="0" class="st6 st12 st9">Become a full time Intern at our </tspan><tspan x="26.6" y="10.8" class="st6 st12 st9">company / startup</tspan></text>
	<path class="st6" d="M26.1,262.2l1-0.8l1,2c0.6-1.6,1.9-2.8,3.4-3.4c0.1,0.1,0.2,0.4,0.2,0.4s-1.3,0.1-3.3,4.3h-1
		C27.1,263.8,26.7,263,26.1,262.2z"/>
	<path class="st6" d="M25.8,321.4l1-0.8l1,2c0.6-1.6,1.9-2.8,3.4-3.4c0.1,0.1,0.2,0.4,0.2,0.4s-1.3,0.1-3.3,4.3h-1
		C26.8,323,26.3,322.2,25.8,321.4z"/>
	<path class="st6" d="M26,345.6l1-0.8l1,2c0.6-1.6,1.9-2.8,3.4-3.4c0.1,0.1,0.2,0.4,0.2,0.4s-1.3,0.1-3.3,4.3h-1
		C27,347.3,26.6,346.4,26,345.6z"/>
	<path class="st6" d="M25.8,477.9l1-0.8l1,2c0.6-1.6,1.9-2.8,3.4-3.4c0.1,0.1,0.2,0.4,0.2,0.4s-1.3,0.1-3.3,4.3h-1
		C26.8,479.5,26.4,478.7,25.8,477.9z"/>
	<path class="st6" d="M25.8,442.1l1-0.8l1,2c0.6-1.6,1.9-2.8,3.4-3.4c0.1,0.1,0.2,0.4,0.2,0.4s-1.3,0.1-3.3,4.3h-1
		C26.8,443.7,26.4,442.9,25.8,442.1z"/>
	<path class="st6" d="M26.2,419l1-0.8l1,2c0.6-1.6,1.9-2.8,3.4-3.4c0.1,0.1,0.2,0.4,0.2,0.4s-1.3,0.1-3.3,4.3h-1
		C27.2,420.6,26.7,419.8,26.2,419z"/>
	<path class="st6" d="M26.6,369l1-0.8l1,2c0.6-1.6,1.9-2.8,3.4-3.4c0.1,0.1,0.2,0.4,0.2,0.4s-1.3,0.1-3.3,4.3h-1
		C27.6,370.6,27.2,369.8,26.6,369z"/>
	<path class="st6" d="M26,286.1l1-0.8l1,2c0.6-1.6,1.9-2.8,3.4-3.4c0.1,0.1,0.2,0.4,0.2,0.4s-1.3,0.1-3.3,4.3h-1
		C27,287.7,26.6,286.9,26,286.1z"/>
</g>
<g id="Layer_3">
	<path class="st15" d="M162.1,275"/>
	<path class="st15" d="M13.6,275"/>
</g>
</svg>
