<svg xmlns="http://www.w3.org/2000/svg" xmlns:xlink="http://www.w3.org/1999/xlink" id="Layer_1" x="0px" y="0px" viewBox="0 0 538.4 536.6" style="enable-background:new 0 0 538.4 536.6;" xml:space="preserve"><style type="text/css">	.st0{stroke:#FFFFFF;stroke-miterlimit:10;}</style><g>	<polygon points="305.1,171.1 358.3,215.6 370.4,283.7 335.6,343.7 270.3,367.3 205,343.7 170.2,283.7 182.3,215.6 235.5,171.1  "></polygon>	<polygon points="224,167.5 174.7,208.6 163.6,145.6  "></polygon>	<polygon points="373.9,145.4 362.8,208.4 313.5,167.3  "></polygon>	<polygon points="160.8,283.4 111.6,242.3 172,220.4  "></polygon>	<polygon points="301.8,161.6 237.5,161.6 269.7,106.2  "></polygon>	<polygon points="428,236.5 378.8,277.7 367.6,214.7  "></polygon>	<polygon points="194.2,347.1 129.9,347.1 162,291.7  "></polygon>	<polygon points="410.5,344.5 346.2,344.5 378.3,289.1  "></polygon>	<polygon points="264.4,375.9 215.1,417 203.9,354  "></polygon>	<polygon points="336.2,352.2 325,415.2 275.8,374.1  "></polygon>	<polyline class="st0" points="155.5,202.3 103.4,226.5 63,153.5 147.2,144.5  "></polyline>	<polyline class="st0" points="223.4,149.4 168.5,132.5 187.8,51.4 256.3,100.9  "></polyline>	<polyline class="st0" points="313.2,146.2 282.1,98.2 349.3,48.4 369.7,130.1  "></polyline>	<polyline class="st0" points="380.1,199.9 387.4,143.2 471.1,148.2 433.8,223.8  "></polyline>	<polyline class="st0" points="409.1,283.6 453.1,246.8 511.2,307 432.2,337.3  "></polyline>	<polyline class="st0" points="142.1,286.1 117.1,337.6 39.4,306.5 98.9,246.6  "></polyline>	<polyline class="st0" points="183.8,361.3 200.9,415.8 122.7,446 125,361.8  "></polyline>	<polyline class="st0" points="272.6,403.6 318.1,438.5 271.4,507.8 224.8,437.5  "></polyline>	<polyline class="st0" points="348.9,363.7 405.9,356.4 422.1,438.2 339.2,421.3  "></polyline>	<path class="st0" d="M369.6,502.8l-30-67.8l90,34.3C429.6,469.3,399.1,493.8,369.6,502.8z"></path>	<path class="st0" d="M352,507.3l-27-69.1l-39.3,87.6C285.8,525.9,324.8,521.7,352,507.3z"></path>	<path class="st0" d="M501.5,378.8l-66.6-33.1l91.3-30.8C526.2,314.9,518.5,353.2,501.5,378.8z"></path>	<path class="st0" d="M492.7,391.2l-65.1-36l26,92.4C453.6,447.5,481,419.5,492.7,391.2z"></path>	<path class="st0" d="M519.4,200.5l-71.2,21.8l44.7-85C492.9,137.3,513.9,170.4,519.4,200.5z"></path>	<path class="st0" d="M521.5,214.2l-73.1,14.4l79.9,53.7C528.3,282.3,531,243.3,521.5,214.2z"></path>	<path class="st0" d="M424.7,65.4l-44.4,59.5L365.8,30C365.8,30,402.3,44.3,424.7,65.4z"></path>	<path class="st0" d="M433.2,73.7l-47,57.5l96-9.3C482.2,121.8,459.3,90.1,433.2,73.7z"></path>	<path class="st0" d="M254.3,9.4l1.8,74.1l-70.2-65.8C185.9,17.7,223.6,6.5,254.3,9.4z"></path>	<path class="st0" d="M285.7,10.9l-7.9,73.7l75.3-59.9C353.1,24.7,316.5,10.6,285.7,10.9z"></path>	<path class="st0" d="M94.7,78.8l51.5,53.5l-96.4-1.6C49.8,130.7,70.1,97.2,94.7,78.8z"></path>	<path class="st0" d="M106.9,67l49.1,55.7l6.8-95.7C162.8,27,127.5,44.2,106.9,67z"></path>	<path class="st0" d="M12,237.3l74,8l-74.9,60.4C11.2,305.8,5.1,267.2,12,237.3z"></path>	<path class="st0" d="M16.1,218.2l73.6,11.3l-56.6-77.6C33.1,151.8,17.2,187.5,16.1,218.2z"></path>	<path class="st0" d="M48,399.1l65.3-35.7l-26.5,92.2C86.8,455.7,59.5,427.6,48,399.1z"></path>	<path class="st0" d="M38.7,382.1l66.8-32.7l-91.1-31.3C14.3,318.1,21.9,356.4,38.7,382.1z"></path>	<path class="st0" d="M187.9,510.4l27-69.1l39.3,87.6C254.1,528.9,215.1,524.8,187.9,510.4z"></path>	<path class="st0" d="M172,504.4l30-67.8l-90,34.3C112,470.9,142.5,495.4,172,504.4z"></path></g></svg>